PathFileType	4	(X/Y/Z)	/Users/itak/Documents/Research/Walk-IL/dataset/trc/00409_00012.trc
DataRate	CameraRate	NumFrames	NumMarkers	Units	OrigDataRate	OrigDataStartFrame	OrigNumFrames
100.000000	100.000000	4	56	mm	100.000000	0	667
Frame#	Time	RPSI			LPSI			L3			STRN			T10			C7			CLAV			RBAK			LBAK			LSHO			LUPA			LAEL			LAOL			LWTS			LWPS			LFRA			LHPS			LHTS			RSHO			RUPA			RAEL			RAOL			RWTS			RWPS			RFRA			RIFD			RHTS			RHPS			RBHD			LFHD			RFHD			LBHD			LHIP			RHIP			RASI			LASI			LKNE			LTHI			LANK			LTIP			LTOE			LMT1			LMT5			LHEE			RKNE			RTHI			RANK			RTIP			RTOE			RMT5			RHEE			LIFD			RMT1			*53			*54			*55			
		X1	Y1	Z1	X2	Y2	Z2	X3	Y3	Z3	X4	Y4	Z4	X5	Y5	Z5	X6	Y6	Z6	X7	Y7	Z7	X8	Y8	Z8	X9	Y9	Z9	X10	Y10	Z10	X11	Y11	Z11	X12	Y12	Z12	X13	Y13	Z13	X14	Y14	Z14	X15	Y15	Z15	X16	Y16	Z16	X17	Y17	Z17	X18	Y18	Z18	X19	Y19	Z19	X20	Y20	Z20	X21	Y21	Z21	X22	Y22	Z22	X23	Y23	Z23	X24	Y24	Z24	X25	Y25	Z25	X26	Y26	Z26	X27	Y27	Z27	X28	Y28	Z28	X29	Y29	Z29	X30	Y30	Z30	X31	Y31	Z31	X32	Y32	Z32	X33	Y33	Z33	X34	Y34	Z34	X35	Y35	Z35	X36	Y36	Z36	X37	Y37	Z37	X38	Y38	Z38	X39	Y39	Z39	X40	Y40	Z40	X41	Y41	Z41	X42	Y42	Z42	X43	Y43	Z43	X44	Y44	Z44	X45	Y45	Z45	X46	Y46	Z46	X47	Y47	Z47	X48	Y48	Z48	X49	Y49	Z49	X50	Y50	Z50	X51	Y51	Z51	X52	Y52	Z52	X53	Y53	Z53	X54	Y54	Z54	X55	Y55	Z55	X56	Y56	Z56	

1	0	268.7144165039062	991.1760864257812	1088.911254882812	284.2088317871094	984.6275024414062	1219.626586914062	274.6484985351562	1059.392700195312	1150.569946289062	40.46974945068359	1219.56689453125	1164.395263671875	276.1134033203125	1157.114501953125	1149.3037109375	260.4084167480469	1409.057495117188	1156.643676757812	97.27204895019531	1337.287841796875	1159.597045898438	290.9142456054688	1261.727661132812	1086.064331054688	277.8733520507812	1372.216186523438	1260.1337890625	193.6022186279297	1392.899169921875	1312.821533203125	206.7304534912109	1277.215576171875	1387.219970703125	154.6980590820312	1083.82568359375	1414.030395507812	218.6127014160156	1053.73095703125	1368.35107421875	45.95177841186523	885.5382690429688	1336.044067382812	68.00148010253906	865.927001953125	1412.811645507812	117.6938400268555	983.63671875	1418.0986328125	49.52659606933594	784.3809204101562	1396.679321289062	14.22730350494385	789.4622192382812	1344.734252929688	189.7570495605469	1391.726928710938	1001.7314453125	194.3223419189453	1326.047241210938	941.2366943359375	150.1167755126953	1066.695922851562	898.5261840820312	186.0956726074219	1051.154907226562	983.9269409179688	9.465218544006348	866.1712646484375	954.8970336914062	30.43542671203613	854.8169555664062	884.6253662109375	112.7583770751953	1006.953979492188	886.4465942382812	-9.018657684326172	692.3148193359375	943.59814453125	-17.96524047851562	763.1735229492188	940.8170166015625	18.15450286865234	767.850830078125	883.0084228515625	205.5791625976562	1606.919799804688	1072.349975585938	78.74414825439453	1601.112548828125	1225.272338867188	74.50140380859375	1607.072021484375	1103.271728515625	226.8037872314453	1598.287475585938	1231.944580078125	206.3849029541016	972.7501831054688	1338.636352539062	177.2275543212891	964.5889282226562	981.8704223632812	49.50021743774414	973.0632934570312	1046.934814453125	85.52625274658203	970.8890991210938	1307.13720703125	162.3360137939453	477.307861328125	1326.650146484375	169.1433410644531	619.9627075195312	1336.235717773438	244.0091705322266	40.53504943847656	1280.70263671875	205.8280792236328	246.1561889648438	1316.728759765625	23.94985961914062	46.88776397705078	1235.053955078125	99.91863250732422	45.01135635375977	1197.183837890625	117.9427795410156	40.6948356628418	1303.174438476562	276.10205078125	37.94701766967773	1221.446166992188	151.7199859619141	473.4669189453125	1007.506408691406	107.6640472412109	735.8252563476562	986.562744140625	191.4490356445312	52.92771148681641	1053.1923828125	142.5605773925781	348.2424011230469	1026.004272460938	17.74446105957031	42.7592887878418	1130.667602539062	105.9122543334961	45.7561149597168	1054.974609375	267.6986999511719	40.00474166870117	1100.76025390625	30.92590141296387	707.521728515625	1331.472412109375	80.14358520507812	61.09298706054688	1160.753540039062	nan	nan	nan	nan	nan	nan	nan	nan	nan	
2	0.01	268.6146545410156	991.183349609375	1088.90966796875	284.0938720703125	984.6213989257812	1219.644409179688	274.6085510253906	1059.394897460938	1150.56494140625	40.36098098754883	1219.544067382812	1164.3662109375	276.0140686035156	1157.117065429688	1149.315307617188	260.2557678222656	1409.019775390625	1156.670654296875	97.16494750976562	1337.245483398438	1159.61279296875	290.8102416992188	1261.7275390625	1086.079345703125	277.732666015625	1372.234497070312	1260.161865234375	193.4973449707031	1392.8935546875	1312.886352539062	206.6137847900391	1277.215576171875	1387.225463867188	154.5619049072266	1083.824584960938	1414.049560546875	218.5052795410156	1053.726806640625	1368.376220703125	45.93717575073242	885.432373046875	1336.031005859375	67.96341705322266	865.8822021484375	1412.86376953125	117.6469497680664	983.62744140625	1418.134643554688	49.52276611328125	784.3261108398438	1396.682739257812	14.5299072265625	789.2041625976562	1344.622924804688	189.681396484375	1391.725341796875	1001.731018066406	194.2495880126953	1326.0205078125	941.246826171875	150.0074768066406	1066.659301757812	898.5833740234375	185.9882202148438	1051.1328125	983.9744262695312	9.376346588134766	866.1324462890625	955.07568359375	30.31173706054688	854.7792358398438	884.7572631835938	112.607536315918	1006.886169433594	886.5242919921875	-9.021393775939941	692.2342529296875	943.84130859375	-18.51105499267578	763.2091064453125	940.6738891601562	18.03239250183105	767.8258056640625	883.1599731445312	205.3468322753906	1606.87451171875	1072.429077148438	78.66336822509766	1601.084350585938	1225.266967773438	74.36788177490234	1607.064453125	1103.234252929688	226.5926361083984	1598.318969726562	1231.93896484375	206.2438354492188	972.7396850585938	1338.658203125	177.1788787841797	964.5889282226562	981.8613891601562	49.48477554321289	973.0122680664062	1046.941772460938	85.45332336425781	970.8831176757812	1307.125122070312	162.3225250244141	477.3250427246094	1326.64990234375	169.1187744140625	619.956298828125	1336.242797851562	244.0041351318359	40.54116439819336	1280.693115234375	205.8302307128906	246.1613159179688	1316.724731445312	23.94666290283203	46.87734985351562	1235.05810546875	99.92743682861328	45.01817321777344	1197.182373046875	117.9453125	40.69672393798828	1303.169067382812	276.0997314453125	37.94365310668945	1221.442260742188	151.6933288574219	473.4548950195312	1007.476928710938	107.5395278930664	735.6976318359375	986.6604614257812	191.4359130859375	52.93836212158203	1053.193481445312	142.5324401855469	348.22216796875	1025.96533203125	17.76260757446289	42.77266311645508	1130.670043945312	105.9122161865234	45.75735855102539	1054.964599609375	267.6964721679688	39.99979400634766	1100.7509765625	30.87878227233887	707.4808959960938	1331.477661132812	80.11136627197266	61.11643218994141	1160.7490234375	nan	nan	nan	nan	nan	nan	nan	nan	nan	
3	0.02	268.4887390136719	991.193359375	1088.915649414062	283.94482421875	984.6168823242188	1219.671875	274.5586242675781	1059.398681640625	1150.564819335938	40.22970199584961	1219.511962890625	1164.335815429688	275.8905639648438	1157.121337890625	1149.3330078125	260.0718994140625	1408.96728515625	1156.697265625	97.03182220458984	1337.199462890625	1159.636962890625	290.6822204589844	1261.725463867188	1086.102294921875	277.547119140625	1372.2578125	1260.199829101562	193.3600158691406	1392.8876953125	1312.965698242188	206.46435546875	1277.215454101562	1387.233032226562	154.3986206054688	1083.822509765625	1414.079833984375	218.3608551025391	1053.721435546875	1368.414184570312	45.94611358642578	885.3187866210938	1336.0380859375	67.92318725585938	865.8341064453125	1412.9365234375	117.5975799560547	983.6187133789062	1418.2119140625	49.48951721191406	784.248779296875	1396.725708007812	14.8626070022583	788.9202880859375	1344.510375976562	189.5885772705078	1391.723999023438	1001.74169921875	194.156494140625	1325.991088867188	941.2643432617188	149.8707580566406	1066.615600585938	898.6471557617188	185.8642272949219	1051.107543945312	984.0279541015625	9.233772277832031	866.103515625	955.31884765625	30.14523315429688	854.7388305664062	884.9117431640625	112.4296569824219	1006.807006835938	886.6129150390625	-9.094839096069336	692.1565551757812	944.093017578125	-19.26916694641113	763.2664794921875	940.4546508789062	17.88714218139648	767.7860107421875	883.3554077148438	205.0719299316406	1606.8349609375	1072.502685546875	78.53172302246094	1601.05029296875	1225.258666992188	74.20303344726562	1607.053466796875	1103.189575195312	226.348388671875	1598.357299804688	1231.941284179688	206.0509948730469	972.7269287109375	1338.687744140625	177.1207885742188	964.59033203125	981.8538818359375	49.45713806152344	972.9473266601562	1046.949462890625	85.36553955078125	970.8775634765625	1307.116455078125	162.3047943115234	477.3516540527344	1326.65771484375	169.0948486328125	619.9490356445312	1336.257934570312	243.9985961914062	40.54930114746094	1280.682861328125	205.8294067382812	246.1656036376953	1316.718017578125	23.9462890625	46.8700065612793	1235.060424804688	99.93280029296875	45.02335739135742	1197.181884765625	117.952033996582	40.70131301879883	1303.1611328125	276.0972595214844	37.94001007080078	1221.4384765625	151.6561431884766	473.439453125	1007.433654785156	107.3838424682617	735.5433349609375	986.77392578125	191.4191436767578	52.95164489746094	1053.19140625	142.4915466308594	348.1982116699219	1025.919555664062	17.79510116577148	42.7969970703125	1130.674560546875	105.9125442504883	45.75896453857422	1054.94580078125	267.6956787109375	39.99013900756836	1100.736572265625	30.81263732910156	707.4097290039062	1331.497192382812	80.04852294921875	61.17131042480469	1160.762084960938	nan	nan	nan	nan	nan	nan	nan	nan	nan	
4	0.03	268.3423767089844	991.2069091796875	1088.932373046875	283.7649536132812	984.6160888671875	1219.711303710938	274.4999694824219	1059.405395507812	1150.57275390625	40.08382415771484	1219.470703125	1164.307983398438	275.7510986328125	1157.1279296875	1149.357421875	259.8667602539062	1408.903076171875	1156.720458984375	96.88069915771484	1337.155151367188	1159.670288085938	290.5372314453125	1261.720825195312	1086.134399414062	277.3233947753906	1372.284912109375	1260.247192382812	193.1920166015625	1392.883422851562	1313.051025390625	206.2867431640625	1277.215698242188	1387.243774414062	154.2181854248047	1083.819702148438	1414.122924804688	218.1835327148438	1053.715454101562	1368.465698242188	45.98426818847656	885.208251953125	1336.073852539062	67.88638305664062	865.7886352539062	1413.029907226562	117.5510177612305	983.6126708984375	1418.339599609375	49.42316436767578	784.148681640625	1396.821899414062	15.17434692382812	788.6524658203125	1344.425659179688	189.4829559326172	1391.722778320312	1001.770263671875	194.04638671875	1325.962280273438	941.2913208007812	149.7123718261719	1066.568481445312	898.7111206054688	185.7322235107422	1051.080932617188	984.0823364257812	9.028507232666016	866.0972290039062	955.6320190429688	29.93891143798828	854.7007446289062	885.076904296875	112.2363510131836	1006.723388671875	886.7042846679688	-9.256508827209473	692.0940551757812	944.32568359375	-20.19101333618164	763.3434448242188	940.1785278320312	17.72029113769531	767.7373046875	883.5797729492188	204.7698822021484	1606.808837890625	1072.561279296875	78.34063720703125	1601.010986328125	1225.246704101562	74.01416778564453	1607.037841796875	1103.140869140625	226.0865173339844	1598.398803710938	1231.954223632812	205.8084869384766	972.7141723632812	1338.725463867188	177.0579833984375	964.5940551757812	981.8496704101562	49.41524505615234	972.8706665039062	1046.957397460938	85.26497650146484	970.8742065429688	1307.115600585938	162.2815399169922	477.3893432617188	1326.677734375	169.0740814208984	619.9420166015625	1336.282958984375	243.9936370849609	40.55879592895508	1280.673217773438	205.8228149414062	246.1679840087891	1316.708374023438	23.95269584655762	46.86957550048828	1235.059204101562	99.93734741210938	45.02785110473633	1197.182739257812	117.9652709960938	40.70997619628906	1303.150756835938	276.0950622558594	37.9366455078125	1221.435302734375	151.6057281494141	473.4209899902344	1007.374633789062	107.2062530517578	735.3799438476562	986.886962890625	191.3991241455078	52.96644592285156	1053.18359375	142.4375457763672	348.1717834472656	1025.869384765625	17.84626388549805	42.83507919311523	1130.68115234375	105.9136047363281	45.76100540161133	1054.915771484375	267.6969299316406	39.97393035888672	1100.7158203125	30.74025726318359	707.3023071289062	1331.53466796875	79.94602966308594	61.26900100708008	1160.802612304688	nan	nan	nan	nan	nan	nan	nan	nan	nan	
